<?xml version="1.0" encoding="UTF-8" standalone="no"?>
<svg
   xmlns:dc="http://purl.org/dc/elements/1.1/"
   xmlns:cc="http://creativecommons.org/ns#"
   xmlns:rdf="http://www.w3.org/1999/02/22-rdf-syntax-ns#"
   xmlns:svg="http://www.w3.org/2000/svg"
   xmlns="http://www.w3.org/2000/svg"
   version="1.1"
   id="Layer_1"
   x="0px"
   y="0px"
   width="146px"
   height="140px"
   viewBox="0 0 515.37573 481.58838"
   enable-background="new 0 0 612 596.409"
   xml:space="preserve"><metadata
   id="metadata21"><rdf:RDF><cc:Work
       rdf:about=""><dc:format>image/svg+xml</dc:format><dc:type
         rdf:resource="http://purl.org/dc/dcmitype/StillImage" /><dc:title></dc:title></cc:Work></rdf:RDF></metadata><defs
   id="defs19">
	
		
	</defs>

<rect
   x="143.95137"
   y="-0.49340338"
   fill-rule="evenodd"
   clip-rule="evenodd"
   fill="#ffffff"
   stroke="#000000"
   stroke-width="11.6026"
   stroke-miterlimit="2.6131"
   width="298.51364"
   height="277.69897"
   id="rect4-3"
   ry="19.526428"
   style="stroke:#296fac;stroke-opacity:1" /><path
   fill-rule="evenodd"
   clip-rule="evenodd"
   stroke="#000000"
   stroke-width="0.211291"
   stroke-miterlimit="2.6131"
   d="m 189.9184,61.681475 h 206.11944 c 2.76206,0 5.02238,2.20839 5.02238,4.90796 v 0 c 0,2.69957 -2.26032,4.90796 -5.02238,4.90796 H 189.9184 c -2.76305,0 -5.02337,-2.20839 -5.02337,-4.90796 v 0 c 0,-2.69957 2.26032,-4.90796 5.02337,-4.90796 z"
   id="path6-0"
   style="fill:#296fac;fill-opacity:1;stroke:#296fac;stroke-opacity:1" /><path
   fill-rule="evenodd"
   clip-rule="evenodd"
   stroke="#000000"
   stroke-width="0.211291"
   stroke-miterlimit="2.6131"
   d="m 189.87486,127.03201 h 206.66571 c 2.61362,0 4.75023,2.0885 4.75023,4.6411 v 0 c 0,2.5526 -2.13661,4.6411 -4.75023,4.6411 H 189.87486 c -2.61263,0 -4.75024,-2.0885 -4.75024,-4.6411 v 0 c 0,-2.5526 2.13761,-4.6411 4.75024,-4.6411 z"
   id="path8-7"
   style="fill:#296fac;fill-opacity:1;stroke:#296fac;stroke-opacity:1" /><path
   fill-rule="evenodd"
   clip-rule="evenodd"
   stroke="#000000"
   stroke-width="0.211291"
   stroke-miterlimit="2.6131"
   d="m 189.95798,191.03276 h 206.69343 c 2.6057,0 4.73638,2.08173 4.73638,4.62756 v 0 c 0,2.54487 -2.13068,4.62756 -4.73638,4.62756 H 189.95798 c -2.60471,0 -4.73637,-2.08172 -4.73637,-4.62756 v 0 c 9.9e-4,-2.54583 2.13166,-4.62756 4.73637,-4.62756 z"
   id="path10-8"
   style="fill:#296fac;fill-opacity:1;stroke:#296fac;stroke-opacity:1" /><path
   fill-rule="evenodd"
   clip-rule="evenodd"
   fill="#000000"
   d="m 101.92632,250.47459 h 387.83556 c 13.81921,0 25.12476,13.30158 25.12476,29.55993 v 124.90163 c 0,16.25931 -11.30555,29.55993 -25.12476,29.55993 H 101.93621 v 3.34062 c 0,27.25679 -22.825852,49.55726 -50.723562,49.55726 v 0 c -27.89771,0 -50.72354951,-22.29951 -50.72354951,-49.55726 V 251.29742 c 0,-27.25679 22.82583951,-49.55823 50.72354951,-49.55823 v 0 c 27.61666,0 50.258432,21.85377 50.713672,48.7354 z m 80.71928,33.59188 c -6.22478,0 -11.31643,4.97565 -11.31643,11.05645 v 29.48065 c 0,6.07984 5.09165,11.05645 11.31643,11.05645 h 226.88983 c 6.22478,0 11.31643,-4.97565 11.31643,-11.05645 v -29.48065 c 0,-6.0808 -5.09165,-11.05645 -11.31643,-11.05645 z"
   id="path2-6"
   style="fill:#335a90;fill-opacity:1;stroke:#335a90;stroke-width:0.978197;stroke-opacity:1" /></svg>
